<svg width="60" height="67" viewBox="0 0 60 67" fill="none" xmlns="http://www.w3.org/2000/svg">
<path d="M30 13.6103C28.1667 13.6103 26.5972 12.9575 25.2917 11.652C23.9861 10.3464 23.3333 8.77698 23.3333 6.94364C23.3333 5.11031 23.9861 3.54087 25.2917 2.23531C26.5972 0.929755 28.1667 0.276978 30 0.276978C31.8333 0.276978 33.4028 0.929755 34.7083 2.23531C36.0139 3.54087 36.6667 5.11031 36.6667 6.94364C36.6667 8.77698 36.0139 10.3464 34.7083 11.652C33.4028 12.9575 31.8333 13.6103 30 13.6103ZM20 66.9436V23.6103C16.6667 23.3325 13.2778 22.9159 9.83333 22.3603C6.38889 21.8048 3.11111 21.1103 0 20.277L1.66667 13.6103C6 14.777 10.6111 15.6242 15.5 16.152C20.3889 16.6798 25.2222 16.9436 30 16.9436C34.7778 16.9436 39.6111 16.6798 44.5 16.152C49.3889 15.6242 54 14.777 58.3333 13.6103L60 20.277C56.8889 21.1103 53.6111 21.8048 50.1667 22.3603C46.7222 22.9159 43.3333 23.3325 40 23.6103V66.9436H33.3333V46.9436H26.6667V66.9436H20Z" fill="#27AC1F"/>
</svg>
