<svg width="80" height="81" viewBox="0 0 80 81" fill="none" xmlns="http://www.w3.org/2000/svg">
<mask id="mask0_108_383" style="mask-type:alpha" maskUnits="userSpaceOnUse" x="0" y="0" width="80" height="81">
<rect y="0.610352" width="80" height="80" fill="#D9D9D9"/>
</mask>
<g mask="url(#mask0_108_383)">
<path d="M30 48.9437V43.9437H50V48.9437H30ZM26.6666 38.9437V33.9437H53.3333V38.9437H26.6666ZM23.3333 77.2771C21.5 77.2771 19.9305 76.6243 18.625 75.3187C17.3194 74.0132 16.6666 72.4437 16.6666 70.6104V10.6104C16.6666 8.77706 17.3194 7.20761 18.625 5.90206C19.9305 4.5965 21.5 3.94373 23.3333 3.94373H56.6666C58.5 3.94373 60.0694 4.5965 61.375 5.90206C62.6805 7.20761 63.3333 8.77706 63.3333 10.6104V70.6104C63.3333 72.4437 62.6805 74.0132 61.375 75.3187C60.0694 76.6243 58.5 77.2771 56.6666 77.2771H23.3333ZM23.3333 67.2771V70.6104H56.6666V67.2771H23.3333ZM23.3333 60.6104H56.6666V20.6104H23.3333V60.6104ZM23.3333 13.9437H56.6666V10.6104H23.3333V13.9437Z" fill="#27AC1F"/>
</g>
</svg>
