<svg width="80" height="81" viewBox="0 0 80 81" fill="none" xmlns="http://www.w3.org/2000/svg">
<mask id="mask0_108_373" style="mask-type:alpha" maskUnits="userSpaceOnUse" x="0" y="0" width="80" height="81">
<rect y="0.610352" width="80" height="80" fill="#D9D9D9"/>
</mask>
<g mask="url(#mask0_108_373)">
<path d="M20 77.277V49.8603L9.16663 32.277L24.5833 7.27698H55.4166L70.8333 32.277L60 49.8603V77.277L40 70.6103L20 77.277ZM26.6666 68.027L40 63.6103L53.3333 68.027V57.277H26.6666V68.027ZM28.3333 13.9436L17 32.277L28.3333 50.6103H51.6666L63 32.277L51.6666 13.9436H28.3333ZM36.5 45.8603L24.6666 34.1103L29.4166 29.3603L36.5 36.4436L50.5833 22.277L55.3333 26.9436L36.5 45.8603Z" fill="#27AC1F"/>
</g>
</svg>
