<svg width="12" height="20" viewBox="0 0 12 20" fill="none" xmlns="http://www.w3.org/2000/svg">
<path d="M10.6667 0.666748H1.33333C0.979711 0.666748 0.640573 0.807224 0.390525 1.05727C0.140476 1.30732 0 1.64646 0 2.00008V18.0001C0 18.3537 0.140476 18.6928 0.390525 18.9429C0.640573 19.1929 0.979711 19.3334 1.33333 19.3334H10.6667C11.0203 19.3334 11.3594 19.1929 11.6095 18.9429C11.8595 18.6928 12 18.3537 12 18.0001V2.00008C12 1.64646 11.8595 1.30732 11.6095 1.05727C11.3594 0.807224 11.0203 0.666748 10.6667 0.666748ZM6.66667 18.0001H5.33333V16.6667H6.66667V18.0001ZM1.33333 15.3334V2.00008H10.6667V15.3334H1.33333Z" fill="#B9B9B9"/>
</svg>
